PathFileType	4	(X/Y/Z)	/Users/itak/Documents/Research/Walk-IL/dataset/trc/00276_00010.trc
DataRate	CameraRate	NumFrames	NumMarkers	Units	OrigDataRate	OrigDataStartFrame	OrigNumFrames
100.000000	100.000000	4	54	mm	100.000000	184	493
Frame#	Time	RPSI			LPSI			L3			STRN			T10			C7			CLAV			RBAK			LBAK			LSHO			LUPA			LAEL			LAOL			LWTS			LWPS			LFRA			LHPS			LHTS			RSHO			RUPA			RAEL			RAOL			RWTS			RWPS			RFRA			RIFD			RHTS			RHPS			RBHD			LFHD			RFHD			LBHD			LHIP			RHIP			RASI			LKNE			LTHI			LANK			LTIP			LTOE			LMT1			LMT5			LHEE			RKNE			RTHI			RANK			RTIP			RTOE			RMT1			RMT5			RHEE			LIFD			LASI			*53			
		X1	Y1	Z1	X2	Y2	Z2	X3	Y3	Z3	X4	Y4	Z4	X5	Y5	Z5	X6	Y6	Z6	X7	Y7	Z7	X8	Y8	Z8	X9	Y9	Z9	X10	Y10	Z10	X11	Y11	Z11	X12	Y12	Z12	X13	Y13	Z13	X14	Y14	Z14	X15	Y15	Z15	X16	Y16	Z16	X17	Y17	Z17	X18	Y18	Z18	X19	Y19	Z19	X20	Y20	Z20	X21	Y21	Z21	X22	Y22	Z22	X23	Y23	Z23	X24	Y24	Z24	X25	Y25	Z25	X26	Y26	Z26	X27	Y27	Z27	X28	Y28	Z28	X29	Y29	Z29	X30	Y30	Z30	X31	Y31	Z31	X32	Y32	Z32	X33	Y33	Z33	X34	Y34	Z34	X35	Y35	Z35	X36	Y36	Z36	X37	Y37	Z37	X38	Y38	Z38	X39	Y39	Z39	X40	Y40	Z40	X41	Y41	Z41	X42	Y42	Z42	X43	Y43	Z43	X44	Y44	Z44	X45	Y45	Z45	X46	Y46	Z46	X47	Y47	Z47	X48	Y48	Z48	X49	Y49	Z49	X50	Y50	Z50	X51	Y51	Z51	X52	Y52	Z52	X53	Y53	Z53	X54	Y54	Z54	

185	1.84	230.3740386962891	975.7642822265625	43.16075134277344	222.9684295654297	978.7136840820312	-131.2985687255859	245.8863677978516	1057.563110351562	-45.67188262939453	506.9750061035156	1235.291381835938	-70.59433746337891	238.6411285400391	1177.8984375	-46.92518615722656	286.7747802734375	1420.55517578125	-74.71983337402344	446.47900390625	1338.128295898438	-74.12675476074219	240.8178558349609	1288.331298828125	9.496805191040039	265.150146484375	1380.881591796875	-176.1478881835938	352.88134765625	1383.937133789062	-231.7879180908203	309.9867858886719	1271.867431640625	-304.9826354980469	283.7440185546875	1072.963989257812	-325.3308715820312	226.7079925537109	1065.351928710938	-258.9556579589844	329.9810180664062	839.2252197265625	-301.2355346679688	285.0981750488281	837.6326904296875	-357.3012390136719	277.7740783691406	968.493408203125	-341.0359191894531	272.0777587890625	749.8262329101562	-357.8819885253906	329.9458618164062	739.4637451171875	-328.8008728027344	366.455078125	1405.044799804688	79.94078063964844	360.9898071289062	1351.8955078125	150.0464782714844	325.0601196289062	1092.204956054688	210.6746368408203	287.6312866210938	1083.316772460938	122.1952209472656	404.3267211914062	860.357177734375	162.5272064208984	364.4490966796875	860.519775390625	237.7755279541016	343.6026000976562	1023.073364257812	224.4884796142578	399.8709411621094	676.485107421875	166.4531555175781	426.8744201660156	743.96826171875	182.0323944091797	380.0200805664062	747.2176513671875	234.2957153320312	300.7576599121094	1566.24853515625	0.1285458207130432	461.9851989746094	1629.850463867188	-121.9405059814453	465.1246032714844	1621.065063476562	-29.61845588684082	297.5616455078125	1569.525634765625	-147.5363311767578	289.0307312011719	939.2785034179688	-233.4656066894531	339.7671203613281	929.350341796875	136.2368316650391	454.6701354980469	944.7943115234375	58.10861587524414	424.8602600097656	479.5301818847656	-189.4830474853516	396.4225158691406	618.1612548828125	-219.8578033447266	336.3941955566406	45.14827728271484	-138.0498504638672	381.2431030273438	250.3146820068359	-172.7513580322266	547.4240112304688	33.38171768188477	-83.90906524658203	474.5117492675781	26.28428840637207	-42.94609451293945	461.14990234375	44.1605339050293	-151.3855285644531	290.6734008789062	37.06517791748047	-79.23137664794922	510.1645202636719	489.5030822753906	123.6696472167969	447.2996215820312	742.6814575195312	135.4626617431641	164.7944946289062	203.9403533935547	104.8495712280273	451.4846801757812	383.4712829589844	112.8037109375	303.8040771484375	72.12931823730469	43.78347778320312	260.2697143554688	112.7456893920898	6.49293851852417	228.6645965576172	119.4967956542969	121.1822204589844	130.7908172607422	243.0047454833984	56.28794860839844	295.8507690429688	654.8231811523438	-306.12841796875	427.7809448242188	952.0253295898438	-191.2707214355469	nan	nan	nan	
186	1.85	225.3450012207031	975.0820922851562	44.17482376098633	216.9108581542969	978.3145751953125	-130.3583679199219	240.1020355224609	1056.455078125	-44.52461624145508	499.5116271972656	1235.203979492188	-71.43222808837891	231.9941864013672	1176.836303710938	-45.5431022644043	278.7545471191406	1419.837768554688	-73.5797119140625	438.6599426269531	1337.787719726562	-74.35282135009766	233.9444122314453	1287.16455078125	10.80475234985352	256.4441833496094	1380.14501953125	-174.8495635986328	343.7023620605469	1383.52685546875	-231.2898406982422	300.1259155273438	1271.549560546875	-304.1684875488281	272.9477844238281	1072.701171875	-324.2891235351562	216.3987579345703	1065.43505859375	-257.4797973632812	316.3377685546875	838.2316284179688	-299.7657470703125	271.4846801757812	837.2532958984375	-355.869384765625	265.9229431152344	968.3452758789062	-339.8031921386719	257.0821838378906	749.6243896484375	-356.2316284179688	314.6473388671875	738.3538208007812	-326.9877624511719	359.7507934570312	1404.288452148438	80.46543121337891	354.8921813964844	1351.08544921875	150.5518341064453	319.9886779785156	1091.272705078125	211.1917266845703	282.4856872558594	1082.1728515625	122.7880935668945	400.2414245605469	859.7307739257812	163.2187652587891	360.2737121582031	859.76123046875	238.4413146972656	338.7862854003906	1022.241516113281	225.0527038574219	396.3924865722656	675.7612915039062	167.1779937744141	423.3057861328125	743.4740600585938	182.8881988525391	376.3685913085938	746.556884765625	235.0732269287109	293.0623779296875	1565.702026367188	1.092634081840515	453.8867492675781	1629.411987304688	-121.4511184692383	457.3442077636719	1620.501220703125	-29.16335105895996	289.3853454589844	1569.210571289062	-146.5313110351562	282.5049743652344	939.3163452148438	-232.9327239990234	335.3060302734375	928.0503540039062	136.6035919189453	449.8089294433594	943.8298950195312	57.95008087158203	421.08447265625	480.0191650390625	-189.3609619140625	391.9300537109375	618.500732421875	-219.7625732421875	336.3638305664062	45.07844543457031	-138.1204528808594	379.3557434082031	250.4564208984375	-172.7602386474609	547.3654174804688	33.37054443359375	-83.86601257324219	474.4453125	26.19120597839355	-42.91203689575195	461.1368103027344	44.16685104370117	-151.4126281738281	290.6169738769531	36.90069961547852	-79.34901428222656	493.9845275878906	484.0870666503906	123.9919204711914	439.4316711425781	739.14599609375	134.5978546142578	139.9978942871094	208.8770294189453	105.450553894043	432.0353088378906	379.8863830566406	113.198486328125	272.7718200683594	71.81317138671875	42.43878936767578	231.0816497802734	115.063346862793	5.588230133056641	199.8406829833984	121.5775680541992	120.4124298095703	107.6673049926758	250.3101043701172	57.45013809204102	279.3323364257812	654.2623291015625	-304.2289428710938	421.5901184082031	952.0431518554688	-191.2046661376953	nan	nan	nan	
187	1.86	220.2471160888672	974.3741455078125	45.23612213134766	210.6999969482422	977.8807373046875	-129.4061584472656	234.2957763671875	1055.264770507812	-43.29402542114258	491.9368896484375	1235.050048828125	-72.25574493408203	225.3004455566406	1175.673828125	-44.06565093994141	270.629150390625	1419.013549804688	-72.34288024902344	430.7151489257812	1337.37353515625	-74.55322265625	226.9850006103516	1285.90771484375	12.23266410827637	247.5876007080078	1379.286987304688	-173.4301910400391	334.3194580078125	1383.033081054688	-230.7183227539062	290.0493774414062	1271.116577148438	-303.2301330566406	262.0195922851562	1072.3232421875	-323.0510864257812	206.1352844238281	1065.322387695312	-255.7193145751953	302.9667663574219	837.2521362304688	-298.305908203125	257.9611511230469	836.8132934570312	-354.3066101074219	254.0357513427734	968.0838012695312	-338.3958435058594	242.3928375244141	749.3867797851562	-354.4993591308594	299.7428588867188	737.3109741210938	-325.2576904296875	353.0021362304688	1403.442993164062	81.03634643554688	348.8326110839844	1350.176025390625	151.1018981933594	315.1562194824219	1090.221557617188	211.7770385742188	277.4569396972656	1080.8994140625	123.5232238769531	396.3189697265625	858.984375	163.8861236572266	356.3673095703125	858.8900756835938	239.1157379150391	334.2330322265625	1021.288635253906	225.6545562744141	393.0113220214844	674.91845703125	167.8548736572266	419.86083984375	742.8404541015625	183.6391906738281	372.9329223632812	745.7715454101562	235.8296051025391	285.3060302734375	1565.088256835938	2.127765655517578	445.7339172363281	1628.863403320312	-120.9142761230469	449.5192260742188	1619.824340820312	-28.6652774810791	281.1346130371094	1568.818237304688	-145.4488677978516	275.97998046875	939.3069458007812	-232.3071746826172	330.8431701660156	926.7371215820312	137.0515594482422	444.8810424804688	942.8362426757812	57.8701171875	417.4739074707031	480.4801025390625	-189.2298278808594	387.5108032226562	618.782958984375	-219.6331787109375	336.3398742675781	45.02153778076172	-138.2156829833984	377.5818481445312	250.588623046875	-172.7703247070312	547.3194580078125	33.35792922973633	-83.82949066162109	474.4010620117188	26.12851524353027	-42.89082717895508	461.126220703125	44.16801071166992	-151.435791015625	290.5381469726562	36.78200912475586	-79.48005676269531	477.3192138671875	478.8568420410156	124.1978759765625	431.3548889160156	735.6322021484375	133.6963806152344	115.5921096801758	213.3454895019531	106.0986099243164	412.2822570800781	376.4128112792969	113.5466079711914	242.3073272705078	71.86809539794922	41.0622673034668	202.4998474121094	117.3779602050781	4.657002449035645	171.5335540771484	123.4739227294922	119.6028289794922	84.87792205810547	256.9668884277344	58.69816589355469	263.4958190917969	653.6732177734375	-302.4397277832031	415.3923034667969	952.0068969726562	-191.0506591796875	nan	nan	nan	
188	1.87	215.0861663818359	973.6639404296875	46.33694076538086	204.3605651855469	977.41748046875	-128.4348297119141	228.4367065429688	1054.014404296875	-41.99641799926758	484.2555847167969	1234.8427734375	-73.05631256103516	218.5594329833984	1174.412841796875	-42.5068473815918	262.3943786621094	1418.090576171875	-71.00939178466797	422.6457214355469	1336.901489257812	-74.72189331054688	219.9483642578125	1284.565185546875	13.7745418548584	238.5831451416016	1378.3203125	-171.8851776123047	324.7430114746094	1382.47021484375	-230.064697265625	279.7622985839844	1270.579956054688	-302.160888671875	250.9684600830078	1071.852416992188	-321.6123352050781	195.9492645263672	1065.023803710938	-253.6617126464844	289.9031066894531	836.2838134765625	-296.8929443359375	244.5394592285156	836.3167114257812	-352.6178894042969	242.1160583496094	967.7208251953125	-336.8196105957031	228.0005493164062	749.1099853515625	-352.6780090332031	285.2510375976562	736.3284912109375	-323.6287536621094	346.1769714355469	1402.517822265625	81.65357208251953	342.7881164550781	1349.174438476562	151.6961669921875	310.5626525878906	1089.060546875	212.4321746826172	272.5219116210938	1079.514282226562	124.4045791625977	392.5334167480469	858.1255493164062	164.5113220214844	352.7357482910156	857.920166015625	239.7914276123047	329.9390258789062	1020.223571777344	226.2881469726562	389.72509765625	673.964599609375	168.4867706298828	416.5347595214844	742.075927734375	184.2664031982422	369.7216186523438	744.8749389648438	236.5609283447266	277.4856262207031	1564.41845703125	3.233503341674805	437.5267028808594	1628.216064453125	-120.3282775878906	441.64013671875	1619.048217773438	-28.12248420715332	272.8032531738281	1568.361083984375	-144.2921600341797	269.4617004394531	939.2437133789062	-231.5861663818359	326.3617248535156	925.4369506835938	137.5913238525391	439.8670043945312	941.8280639648438	57.87789535522461	414.0194396972656	480.9159240722656	-189.0913696289062	383.1520080566406	619.0001831054688	-219.4754028320312	336.3219909667969	44.97591781616211	-138.3342895507812	375.9260864257812	250.7124481201172	-172.7768249511719	547.285888671875	33.34395599365234	-83.80039978027344	474.3759155273438	26.0932731628418	-42.8810920715332	461.1178283691406	44.16312789916992	-151.4552459716797	290.4478149414062	36.70010757446289	-79.62445831298828	460.2281494140625	473.878662109375	124.2593231201172	423.0271606445312	732.1729736328125	132.8108978271484	91.63906860351562	217.2907409667969	106.8073272705078	392.3175354003906	373.0896911621094	113.8250503540039	212.5307312011719	72.17127990722656	39.62131881713867	174.5690612792969	119.5884323120117	3.710572242736816	143.8740997314453	125.1297988891602	118.781623840332	62.47029113769531	262.8915710449219	60.03826522827148	248.3238830566406	653.0540161132812	-300.7296447753906	409.1706848144531	951.92041015625	-190.8027191162109	nan	nan	nan	
